<svg width="12" height="13" viewBox="0 0 12 13" fill="none" xmlns="http://www.w3.org/2000/svg">
<path d="M8.33333 7.83333H7.80667L7.62 7.65333C8.27333 6.89333 8.66667 5.90667 8.66667 4.83333C8.66667 2.44 6.72667 0.5 4.33333 0.5C1.94 0.5 0 2.44 0 4.83333C0 7.22667 1.94 9.16667 4.33333 9.16667C5.40667 9.16667 6.39333 8.77333 7.15333 8.12L7.33333 8.30667V8.83333L10.6667 12.16L11.66 11.1667L8.33333 7.83333ZM4.33333 7.83333C2.67333 7.83333 1.33333 6.49333 1.33333 4.83333C1.33333 3.17333 2.67333 1.83333 4.33333 1.83333C5.99333 1.83333 7.33333 3.17333 7.33333 4.83333C7.33333 6.49333 5.99333 7.83333 4.33333 7.83333Z" fill="black" fill-opacity="0.56"/>
</svg>
